<mxfile host="app.diagrams.net" modified="2024-05-14T11:24:29.483Z" agent="Mozilla/5.0 (Windows NT 10.0; Win64; x64) AppleWebKit/537.36 (KHTML, like Gecko) Chrome/123.0.0.0 Safari/537.36 OPR/109.0.0.0" version="24.4.0" etag="IFyfwJ-5LWIQQLCy3Bmc" type="github">
  <diagram name="Page-1" id="cW-P50r9y2F3xRzv3i_f">
    <mxGraphModel>
      <root>
        <mxCell id="0" />
        <mxCell id="1" parent="0" />
      </root>
    </mxGraphModel>
  </diagram>
</mxfile>
